<svg id="Capa_3" data-name="Capa 3" xmlns="http://www.w3.org/2000/svg" viewBox="0 0 1280 1280"><defs><style>.cls-1,.cls-2{fill:#fff;}.cls-2{font-size:500.55px;stroke:#fff;stroke-miterlimit:10;stroke-width:14px;font-family:NotoSans-Bold, Noto Sans;font-weight:700;}</style></defs><title>ISOLOGO</title><path class="cls-1" d="M1203.13,538.08,950.47,480.29a2.92,2.92,0,0,1-2.14-3.7l76.28-247.71c5.48-17.8-13.14-33.42-29.71-24.94L764.2,322.08a2.91,2.91,0,0,1-4-1.46L659.4,81.83c-7.24-17.15-31.56-17.15-38.8,0L519.81,320.62a2.91,2.91,0,0,1-4,1.46L285.1,203.94c-16.57-8.48-35.19,7.14-29.71,24.94l76.28,247.71a2.92,2.92,0,0,1-2.14,3.7L76.87,538.08c-18.15,4.15-22.37,28.09-6.74,38.2L287.79,717a2.89,2.89,0,0,1,.74,4.2L132.13,927.89c-11.23,14.85.92,35.9,19.4,33.6l257.19-32.11a2.91,2.91,0,0,1,3.27,2.74L425,1191c.94,18.6,23.78,26.91,36.45,13.27l176.39-189.92a2.92,2.92,0,0,1,4.27,0l176.38,189.92c12.67,13.64,35.51,5.33,36.45-13.27l13-258.86a2.91,2.91,0,0,1,3.27-2.74l257.19,32.11c18.48,2.3,30.63-18.75,19.4-33.6L991.47,721.21a2.9,2.9,0,0,1,.74-4.2l217.66-140.73C1225.5,566.17,1221.28,542.23,1203.13,538.08ZM811,859.09l-9.78,194.14a15.79,15.79,0,0,1-27.34,10L641.6,920.75a2.18,2.18,0,0,0-3.2,0L506.11,1063.18a15.79,15.79,0,0,1-27.34-10L469,859.09a2.18,2.18,0,0,0-2.45-2.06L273.65,881.11a15.79,15.79,0,0,1-14.55-25.2l117.3-155a2.18,2.18,0,0,0-.56-3.15L212.6,592.21a15.79,15.79,0,0,1,5.05-28.65l189.5-43.35a2.18,2.18,0,0,0,1.6-2.77L351.54,331.66A15.79,15.79,0,0,1,373.83,313l173,88.6a2.19,2.19,0,0,0,3-1.1l75.59-179.09a15.8,15.8,0,0,1,29.1,0l75.59,179.09a2.19,2.19,0,0,0,3,1.1l173-88.6a15.79,15.79,0,0,1,22.29,18.7L871.25,517.44a2.18,2.18,0,0,0,1.6,2.77l189.5,43.35a15.79,15.79,0,0,1,5.05,28.65L904.16,697.75a2.18,2.18,0,0,0-.56,3.15l117.3,155a15.79,15.79,0,0,1-14.55,25.2L813.46,857A2.18,2.18,0,0,0,811,859.09Z"/><path class="cls-1" d="M1226.06,553.73a27.63,27.63,0,0,0-21.37-22.47L956.32,474.44l75-243.5a28,28,0,0,0-39.59-33.23L764.92,313.84,665.85,79.11a28.06,28.06,0,0,0-51.7,0L515.08,313.84,288.29,197.71a28.05,28.05,0,0,0-39.59,33.23l75,243.5L75.31,531.26a28.05,28.05,0,0,0-9,50.9l214,138.33L126.55,923.67a28.05,28.05,0,0,0,25.85,44.76l252.82-31.56L418,1191.33a27.64,27.64,0,0,0,18.42,25,28.55,28.55,0,0,0,9.79,1.75,27.64,27.64,0,0,0,20.36-9L640,1022.32,813.39,1209A28.05,28.05,0,0,0,862,1191.33l12.82-254.46,252.82,31.56a28,28,0,0,0,25.85-44.76L999.7,720.5l214-138.34A27.66,27.66,0,0,0,1226.06,553.73Zm-20,16.67L988.41,711.13a9.92,9.92,0,0,0-2.53,14.3l156.41,206.68a14.06,14.06,0,0,1-13,22.43L872.15,922.43A9.91,9.91,0,0,0,861,931.77l-13,258.86a14.06,14.06,0,0,1-24.34,8.86L647.26,1009.57a9.9,9.9,0,0,0-14.52,0L456.36,1199.49a14.06,14.06,0,0,1-24.34-8.86L419,931.77a9.91,9.91,0,0,0-11.13-9.34L150.66,954.54a14.06,14.06,0,0,1-12.95-22.43l156.4-206.67a9.91,9.91,0,0,0-2.52-14.31L73.94,570.4a14.05,14.05,0,0,1,4.49-25.5l252.66-57.79a9.92,9.92,0,0,0,7.27-12.58L262.08,226.82a14,14,0,0,1,19.83-16.64l230.7,118.13a9.91,9.91,0,0,0,13.65-5L627.05,84.56a14.06,14.06,0,0,1,25.9,0L753.74,323.34a9.91,9.91,0,0,0,13.65,5l230.7-118.13a14,14,0,0,1,19.83,16.64L941.64,474.53a9.92,9.92,0,0,0,7.27,12.58l252.66,57.79a14.05,14.05,0,0,1,4.49,25.5Z"/><path class="cls-1" d="M1081.27,575a22.46,22.46,0,0,0-17.36-18.26L879.47,514.54l55.68-180.82a22.79,22.79,0,0,0-32.17-27L734.57,393,661,218.65a22.79,22.79,0,0,0-42,0L545.43,393,377,306.73a22.79,22.79,0,0,0-32.17,27l55.68,180.82L216.09,556.73a22.79,22.79,0,0,0-7.29,41.36L367.69,700.81,253.52,851.69a22.79,22.79,0,0,0,21,36.37l187.75-23.44,9.52,189A22.79,22.79,0,0,0,511.24,1068L640,929.31,768.76,1068a22.48,22.48,0,0,0,16.54,7.33,23.11,23.11,0,0,0,8-1.43,22.46,22.46,0,0,0,15-20.26l9.52-189,187.75,23.44a22.79,22.79,0,0,0,21-36.37L912.31,700.81,1071.2,598.09A22.47,22.47,0,0,0,1081.27,575Zm-13.87,17.22L904.16,697.75a2.18,2.18,0,0,0-.56,3.15l117.3,155a15.79,15.79,0,0,1-14.55,25.2L813.46,857a2.18,2.18,0,0,0-2.45,2.06l-9.78,194.14a15.79,15.79,0,0,1-27.34,10L641.6,920.75a2.18,2.18,0,0,0-3.2,0L506.11,1063.18a15.79,15.79,0,0,1-27.34-10L469,859.09a2.18,2.18,0,0,0-2.45-2.06L273.65,881.11a15.79,15.79,0,0,1-14.55-25.2l117.3-155a2.18,2.18,0,0,0-.56-3.15L212.6,592.21a15.79,15.79,0,0,1,5.05-28.65l189.5-43.35a2.18,2.18,0,0,0,1.6-2.77L351.54,331.66A15.79,15.79,0,0,1,373.83,313l173,88.6a2.19,2.19,0,0,0,3-1.1l75.59-179.09a15.8,15.8,0,0,1,29.1,0l75.59,179.09a2.19,2.19,0,0,0,3,1.1l173-88.6a15.79,15.79,0,0,1,22.29,18.7L871.25,517.44a2.18,2.18,0,0,0,1.6,2.77l189.5,43.35A15.79,15.79,0,0,1,1067.4,592.21Z"/><text class="cls-2" transform="translate(451.22 843.03)">U</text></svg>